# xmcd
#
# Track frame offsets:
#	150
#	13504
#	25090
#	38003
#	46573
#	55588
#	67879
#	78011
#	89673
#	104063
#	120039
#	130422
#	144722
#	155860
#	167841
#	176052
#	186401
#	198540
#	207725
#	218942
#	231728
#	240931
#	252575
#	265935
#	276523
#
# Disc length: 3793 seconds
#
# Revision: 0
# Processed by: cddbd v1.5.1PL0 Copyright (c) Steve Scherf et al.
# Submitted via: EasyCDDAExtractor 8.2.2.1
#
DISCID=730ecf19
DTITLE=Various Artist - 25 Grands Classiques Du Country
DYEAR=2001
DGENRE=Country
TTITLE0=Marcel Martel - L'infâme Destin
TTITLE1=Adé Gagnon - Au Café Du Port
TTITLE2=Paul Brunelle - Un Simple Cowboy
TTITLE3=Raymond Rouleau - Souvenir De Ma Gaspésie
TTITLE4=Raymond Rouleau - Souvenir De Ma Gaspésie
TTITLE5=Normand Grenier - Mon Cheval Et Moi
TTITLE6=Gaétan Richard - Je SUis Triste Et Seul
TTITLE7=Siméon Roy - Le Drame D'un Ivrogne
TTITLE8=Siméon Roy - Le Drame D'un Ivrogne
TTITLE9=Jenny Fontaine - Toute Seule Sans Amour
TTITLE10=Pierre Farouk - À L'age de 20 Ans
TTITLE11=Normand Gagnon - La Chanson Du Prisonnier
TTITLE12=Louise Phaneut - Sourire
TTITLE13=Larry Robichaud - Si Tu Me Revenais
TTITLE14=Jeannettee - Amour Rompu
TTITLE15=Al King - Tout Le Monde Ensemble On Frappe Des Mains
TTITLE16=Gérard Poudrier - Y'a Personne Qui Peut Te Remplacer
TTITLE17=André Hébert - La Vielle Église
TTITLE18=Arthur Simoneau - En Revenant Des Chantiers
TTITLE19=Yves Ranger - Appelle-Moi Ti-Phonse
TTITLE20=Édouard Castongay - L'oiseau Des Amoureux
TTITLE21=Réal Robert - Reviens Si Tu M'aimes
TTITLE22=Viateur Caron - Je Chante En Me Réveillant
TTITLE23=Éthienne Richard - Sur Ce Vieux Rocher Blanc
TTITLE24=Dan Kidd - Clémentine
EXTD=
EXTT0=
EXTT1=
EXTT2=
EXTT3=
EXTT4=
EXTT5=
EXTT6=
EXTT7=
EXTT8=
EXTT9=
EXTT10=
EXTT11=
EXTT12=
EXTT13=
EXTT14=
EXTT15=
EXTT16=
EXTT17=
EXTT18=
EXTT19=
EXTT20=
EXTT21=
EXTT22=
EXTT23=
EXTT24=
PLAYORDER=
